HIERARCHY
ROOT Hips
{
    OFFSET 0.000000 0.000000 0.000000
    CHANNELS 6 Xposition Yposition Zposition Zrotation Xrotation Yrotation
    JOINT Spine
    {
        OFFSET -0.000000 14.517291 0.000000
        CHANNELS 3 Zrotation Xrotation Yrotation
        JOINT Spine1
        {
            OFFSET -0.000000 37.558300 0.000000
            CHANNELS 3 Zrotation Xrotation Yrotation
            JOINT Neck
            {
                OFFSET -0.000000 37.404057 3.400369
                CHANNELS 3 Zrotation Xrotation Yrotation
                JOINT Head
                {
                    OFFSET -0.000000 24.785618 -3.540803
                    CHANNELS 3 Zrotation Xrotation Yrotation
                    End Site
                    {
                        OFFSET -0.000000 35.408028 0.000000
                    }
                }
            }
            JOINT LeftShoulder
            {
                OFFSET 6.992933 33.973492 -0.192664
                CHANNELS 3 Zrotation Xrotation Yrotation
                JOINT LeftArm
                {
                    OFFSET 21.527611 0.000000 0.000000
                    CHANNELS 3 Zrotation Xrotation Yrotation
                    JOINT LeftForeArm
                    {
                        OFFSET 56.353916 0.000000 0.000000
                        CHANNELS 3 Zrotation Xrotation Yrotation
                        JOINT LeftHand
                        {
                            OFFSET 47.774071 0.000000 0.000000
                            CHANNELS 3 Zrotation Xrotation Yrotation
                            End Site
                            {
                                OFFSET 26.556021 0.000000 0.000000
                            }
                        }
                    }
                }
            }
            JOINT RightShoulder
            {
                OFFSET -7.065357 33.973492 -0.192664
                CHANNELS 3 Zrotation Xrotation Yrotation
                JOINT RightArm
                {
                    OFFSET -21.527611 0.000000 0.000000
                    CHANNELS 3 Zrotation Xrotation Yrotation
                    JOINT RightForeArm
                    {
                        OFFSET -56.353916 0.000000 0.000000
                        CHANNELS 3 Zrotation Xrotation Yrotation
                        JOINT RightHand
                        {
                            OFFSET -47.774071 0.000000 0.000000
                            CHANNELS 3 Zrotation Xrotation Yrotation
                            End Site
                            {
                                OFFSET -26.556021 0.000000 0.000000
                            }
                        }
                    }
                }
            }
        }
    }
    JOINT LeftUpLeg
    {
        OFFSET 17.704014 0.000000 0.000000
        CHANNELS 3 Zrotation Xrotation Yrotation
        JOINT LeftLeg
        {
            OFFSET -0.000000 -81.181816 0.000000
            CHANNELS 3 Zrotation Xrotation Yrotation
            JOINT LeftFoot
            {
                OFFSET -0.000000 -62.821102 0.000000
                CHANNELS 3 Zrotation Xrotation Yrotation
                JOINT LeftToeBase
                {
                    OFFSET -0.000000 -11.507608 26.556021
                    CHANNELS 3 Zrotation Xrotation Yrotation
                    End Site
                    {
                        OFFSET -0.000000 0.000000 7.081605
                    }
                }
            }
        }
    }
    JOINT RightUpLeg
    {
        OFFSET -17.704014 0.000000 0.000000
        CHANNELS 3 Zrotation Xrotation Yrotation
        JOINT RightLeg
        {
            OFFSET -0.000000 -81.181816 0.000000
            CHANNELS 3 Zrotation Xrotation Yrotation
            JOINT RightFoot
            {
                OFFSET -0.000000 -62.821102 0.000000
                CHANNELS 3 Zrotation Xrotation Yrotation
                JOINT RightToeBase
                {
                    OFFSET -0.000000 -11.507608 26.556021
                    CHANNELS 3 Zrotation Xrotation Yrotation
                    End Site
                    {
                        OFFSET -0.000000 0.000000 7.081605
                    }
                }
            }
        }
    }
}
MOTION
Frames:    8
Frame Time:    0.008333
-21.623211    166.295578    -19.659746    -11.213030    -20.679665    40.851757    4.465107    3.185324    -7.745378    -0.785901    8.130033    -2.485878    28.325487    3.771511    -0.207868    -4.743899    -5.148151    -4.423374    13.861091    9.922258    -26.018589    -32.109684    13.279223    -58.463043    3.053872    -38.589153    -99.401283    -16.055048    -33.416981    -19.618174    8.760747    0.246698    -10.229015    17.808430    1.243582    12.745814    -1.356930    0.357828    82.538025    -11.571924    -0.188096    17.017563    24.945284    -2.034066    6.834909    -3.425219    33.168671    -17.636337    7.321409    -17.819000    31.713737    0.000000    0.000000    0.000000    -94.399704    -46.219696    -58.053738    8.633002    20.547977    -6.996342    16.493423    19.322390    -24.044548    0.000000    0.000000    0.000000    
-21.611404    166.325516    -19.662560    -11.264469    -20.642075    40.844173    4.499379    3.188367    -7.760055    -0.853454    8.094685    -2.485892    28.374928    3.766555    -0.201689    -4.718309    -5.229034    -4.422729    13.854156    9.996077    -26.028023    -32.066578    13.242750    -58.506752    3.082316    -38.615295    -99.389793    -16.097250    -33.410130    -19.628414    8.623095    0.132349    -10.275656    17.660692    1.166303    12.527478    -1.036625    0.338490    82.590996    -11.369948    -0.384146    16.298370    24.954559    -2.083113    6.821945    -3.437729    33.141335    -17.637100    7.285729    -17.788128    31.735552    0.000000    0.000000    0.000000    -94.401154    -46.216099    -58.043884    8.613868    20.519413    -7.012857    16.492550    19.334833    -24.025282    0.000000    0.000000    0.000000    
-21.608873    166.349976    -19.657700    -11.322124    -20.607309    40.833748    4.517283    3.196750    -7.776635    -0.897015    8.056934    -2.488380    28.425943    3.762913    -0.193782    -4.693235    -5.315147    -4.420402    13.864202    10.020444    -26.032694    -32.109856    13.216633    -58.517765    3.061935    -38.568977    -99.417030    -16.071295    -33.383545    -19.625572    8.522963    0.043973    -10.332380    17.537748    1.059041    12.304443    -0.972563    0.471545    82.471565    -11.435678    -0.374196    16.840475    24.980921    -2.134150    6.812390    -3.461293    33.116867    -17.632206    7.274409    -17.754574    31.753860    0.000000    0.000000    0.000000    -94.411880    -46.220303    -58.056461    8.590463    20.516180    -7.019313    16.487247    19.326414    -23.982565    0.000000    0.000000    0.000000    
-21.605734    166.384109    -19.661224    -11.386221    -20.578022    40.815876    4.700986    3.311144    -7.868021    -1.060625    8.026374    -2.504487    28.160416    3.270657    -0.087159    -4.397363    -5.007370    -4.336960    13.824147    9.883098    -25.547525    -32.090454    13.415139    -58.783276    3.010239    -38.521255    -99.566689    -16.020178    -33.394440    -19.532408    8.274116    -0.090827    -10.642749    17.601965    0.851836    12.434428    -0.880582    0.773785    82.463486    -11.740083    -0.244961    17.283831    25.008802    -2.178004    6.806742    -3.483474    33.078560    -17.606354    7.232586    -17.726229    31.766176    0.000000    0.000000    0.000000    -94.397072    -46.217064    -58.035858    8.590873    20.473648    -7.051135    16.491110    19.335524    -23.975119    0.000000    0.000000    0.000000    
-21.605036    166.416214    -19.666050    -11.453289    -20.542534    40.794441    4.549415    3.212291    -7.781590    -0.919586    8.068784    -2.487896    28.539686    3.531375    -0.133430    -4.740796    -5.366505    -4.443117    13.894237    9.971977    -25.916574    -32.203083    13.226767    -58.667683    3.038948    -38.486530    -99.466621    -16.061804    -33.320129    -19.598993    8.335490    -0.171512    -10.567510    17.376354    0.723518    12.040326    -0.839511    0.743908    82.295235    -11.716681    -0.337479    17.549997    25.033108    -2.227005    6.826020    -3.485886    33.037239    -17.602709    7.196364    -17.690594    31.766775    0.000000    0.000000    0.000000    -94.401169    -46.218586    -58.059235    8.574455    20.459230    -7.035005    16.285303    19.352442    -23.817053    0.000000    0.000000    0.000000    
-21.604071    166.442627    -19.669466    -11.514802    -20.497934    40.768497    4.532220    3.160534    -7.794297    -0.907047    8.116125    -2.493462    28.565937    3.571518    -0.116386    -4.744021    -5.528140    -4.425207    13.853391    9.967863    -25.924210    -32.211597    13.204583    -58.641544    3.033176    -38.471111    -99.483124    -16.026203    -33.315277    -19.586197    8.289603    -0.231905    -10.571520    17.319733    0.474176    11.864368    -0.693289    0.905088    82.276459    -11.871090    -0.340351    17.659693    25.045824    -2.277058    6.850780    -3.481986    33.007244    -17.591206    7.165220    -17.663816    31.755711    0.000000    0.000000    0.000000    -94.433907    -46.229607    -58.109432    8.555909    20.454691    -7.064995    16.292614    19.367704    -23.770016    0.000000    0.000000    0.000000    
-21.598789    166.473755    -19.675413    -11.576887    -20.479900    40.735817    4.553605    3.116830    -7.815314    -0.941897    8.164857    -2.497928    28.575254    3.712465    -0.118567    -4.715297    -5.769392    -4.395844    13.825204    9.946171    -25.984884    -32.231106    13.171786    -58.536476    3.019794    -38.470753    -99.520294    -16.020626    -33.328823    -19.569895    8.282331    -0.285388    -10.519917    17.297148    0.200038    11.654011    -0.495574    1.054019    82.291779    -11.892746    -0.377946    17.759510    25.072731    -2.297799    6.877593    -3.476167    32.954533    -17.581793    7.132094    -17.643106    31.752005    0.000000    0.000000    0.000000    -94.422577    -46.235073    -58.126446    8.564198    20.436090    -7.090633    16.294380    19.361881    -23.752605    0.000000    0.000000    0.000000    
-21.600292    166.496109    -19.687738    -11.637787    -20.441738    40.692802    4.539756    3.107967    -7.819141    -0.949711    8.154802    -2.498974    28.652508    3.801478    -0.109326    -4.745086    -5.955083    -4.385448    13.854434    9.995419    -25.994156    -32.260292    13.114408    -58.550396    3.010446    -38.445751    -99.522232    -15.999818    -33.314034    -19.572912    8.306401    -0.343700    -10.488032    17.279991    0.021474    11.408395    -0.188236    0.922383    82.184540    -11.365453    -0.847335    19.249792    25.078560    -2.337049    6.931396    -3.439287    32.917263    -17.580515    7.084815    -17.624626    31.735949    0.000000    0.000000    0.000000    -94.456970    -46.255970    -58.192348    8.570334    20.422342    -7.127990    16.295601    19.395958    -23.775848    0.000000    0.000000    0.000000    
